<?xml version="1.0" standalone="no"?>
<!DOCTYPE svg PUBLIC "-//W3C//DTD SVG 20010904//EN"
 "http://www.w3.org/TR/2001/REC-SVG-20010904/DTD/svg10.dtd">
<svg version="1.0" xmlns="http://www.w3.org/2000/svg"
 width="222.000000pt" height="135.000000pt" viewBox="0 0 222.000000 135.000000"
 preserveAspectRatio="xMidYMid meet">

<g transform="translate(0.000000,135.000000) scale(0.100000,-0.100000)"
fill="#000000" stroke="none">
<path d="M843 1307 c-66 -25 -123 -75 -149 -132 -22 -47 -30 -56 -63 -65 -86
-23 -173 -110 -187 -187 -11 -58 13 -140 54 -185 59 -65 120 -91 237 -97 l100
-6 0 -30 0 -30 -105 -5 -105 -5 -3 -65 c-3 -60 -5 -66 -32 -82 -23 -13 -30
-24 -30 -47 0 -55 55 -84 109 -57 26 14 31 22 31 52 0 28 -6 38 -30 52 -28 16
-30 21 -30 74 l0 57 108 3 107 3 3 43 3 42 60 0 59 0 0 -125 0 -125 -105 0
-105 0 0 -107 0 -108 -30 -17 c-23 -13 -30 -24 -30 -47 0 -55 55 -84 109 -57
25 14 31 23 31 51 0 26 -7 38 -30 55 -30 21 -30 22 -30 116 l0 94 110 0 110 0
0 136 0 135 43 -3 42 -3 0 -175 0 -175 -35 -3 c-65 -5 -80 -11 -80 -34 0 -12
-11 -31 -24 -43 -35 -29 -40 -57 -15 -88 14 -19 30 -27 53 -27 75 0 104 69 46
112 -48 35 -40 56 23 60 l52 3 3 188 2 187 30 0 29 0 3 -132 3 -133 108 -3
107 -3 0 -72 c0 -70 -1 -74 -30 -95 -58 -43 -29 -112 46 -112 23 0 39 8 53 26
28 35 27 41 -14 80 -34 32 -35 34 -35 113 l0 81 -105 0 -105 0 0 125 0 126 63
-3 62 -3 3 -42 3 -43 105 0 104 0 0 -73 c0 -69 -2 -75 -25 -85 -54 -25 -39
-107 21 -118 38 -7 72 9 83 39 12 31 2 55 -30 78 -28 19 -29 24 -29 99 l0 79
-102 3 -103 3 -3 31 -3 31 114 5 c100 4 119 7 158 30 80 47 119 109 119 188 0
80 -53 146 -153 190 -33 15 -47 27 -47 41 0 29 -34 92 -69 126 -61 62 -169 91
-261 72 -30 -6 -61 -15 -69 -19 -9 -5 -38 4 -75 21 -50 24 -74 29 -131 28 -38
0 -84 -6 -102 -12z m228 -45 l31 -19 -26 -7 c-45 -11 -129 -67 -117 -79 6 -6
27 -1 62 17 72 36 156 36 225 1 53 -27 74 -31 74 -15 0 13 -56 47 -100 61 -19
6 -42 13 -50 16 -22 8 67 33 115 32 114 -1 226 -97 237 -203 3 -26 9 -31 52
-42 78 -20 146 -102 146 -176 l0 -33 -20 32 c-26 44 -92 77 -141 70 -83 -11
-147 -63 -152 -122 -3 -41 24 -40 35 2 4 17 22 43 39 57 26 22 36 25 77 20 58
-8 90 -27 104 -62 5 -15 14 -35 19 -44 12 -23 -53 -74 -112 -87 -62 -15 -872
-14 -924 0 -78 22 -139 80 -165 159 -31 93 48 211 164 245 35 10 56 22 56 31
0 53 73 133 147 160 54 20 183 12 224 -14z m-402 -876 c20 -23 -4 -56 -39 -56
-34 0 -53 25 -39 52 12 22 62 24 78 4z m922 -24 c38 -32 7 -71 -46 -58 -30 8
-35 49 -7 65 23 14 27 14 53 -7z m-563 -184 c30 -30 -5 -76 -48 -63 -24 8 -35
42 -20 60 15 18 52 19 68 3z m416 -4 c9 -8 16 -19 16 -24 0 -12 -29 -40 -41
-40 -24 0 -49 23 -49 45 0 35 46 48 74 19z m-625 -53 c15 -28 -8 -54 -44 -49
-30 3 -42 24 -31 54 8 21 63 18 75 -5z"/>
<path d="M996 973 c-3 -3 -6 -18 -6 -33 0 -27 -2 -27 -68 -32 -37 -3 -85 -13
-106 -23 -45 -22 -106 -79 -106 -100 0 -24 19 -17 47 15 43 51 98 74 178 75
58 0 78 -5 115 -27 55 -32 105 -44 115 -27 9 14 -12 29 -42 29 -31 0 -90 55
-98 90 -7 31 -18 44 -29 33z"/>
</g>
</svg>
